<svg width="1639" height="569" viewBox="0 0 1639 569" fill="none" xmlns="http://www.w3.org/2000/svg">
<mask id="path-1-outside-1_183_9" maskUnits="userSpaceOnUse" x="0" y="-1" width="1639" height="570" fill="black">
<rect fill="white" y="-1" width="1639" height="570"/>
<path d="M6.28087 555V190.185H110.405V267.708H111.925C127.886 216.026 159.807 182.585 208.449 182.585C223.65 182.585 232.77 184.105 241.13 188.665V299.63C225.17 289.749 206.169 285.949 187.928 285.949C151.447 285.949 118.765 304.19 110.405 358.152V555H6.28087ZM514.391 337.631C514.391 289.749 491.59 271.508 455.869 271.508C414.067 271.508 388.986 298.11 380.626 363.472V555H276.502V5.49759H380.626V256.308H382.906C404.947 212.226 433.828 182.585 496.151 182.585C566.833 182.585 618.515 222.106 618.515 310.27V555H514.391V337.631ZM665.584 555V190.185H769.708V555H665.584ZM718.026 139.263C684.585 139.263 656.464 111.142 656.464 77.7006C656.464 43.4991 684.585 16.138 718.026 16.138C752.228 16.138 779.589 43.4991 779.589 77.7006C779.589 111.142 752.228 139.263 718.026 139.263ZM814.396 555V477.477L974.002 266.948H820.476V190.185H1093.33V266.948L936.001 477.477H1109.29V555H814.396ZM1274.44 562.6C1190.84 562.6 1118.63 506.358 1118.63 374.873C1118.63 242.627 1191.6 182.585 1270.64 182.585C1328.4 182.585 1365.64 214.506 1378.56 250.988H1380.08V190.185H1484.21V555H1380.08V502.558H1378.56C1361.08 536.759 1329.92 562.6 1274.44 562.6ZM1223.52 376.393C1223.52 442.515 1260 470.637 1302.56 470.637C1337.52 470.637 1377.04 452.396 1380.08 383.233V361.952C1377.04 300.39 1341.32 273.789 1303.32 273.789C1257.72 273.789 1223.52 311.79 1223.52 376.393ZM1529.37 555V5.49759H1633.49V555H1529.37Z"/>
</mask>
<path d="M6.28087 555H0.780867V560.5H6.28087V555ZM6.28087 190.185V184.685H0.780867V190.185H6.28087ZM110.405 190.185H115.905V184.685H110.405V190.185ZM110.405 267.708H104.905V273.208H110.405V267.708ZM111.925 267.708V273.208H115.983L117.18 269.331L111.925 267.708ZM241.13 188.665H246.63V185.4L243.764 183.837L241.13 188.665ZM241.13 299.63L238.235 304.306L246.63 309.503V299.63H241.13ZM110.405 358.152L104.97 357.31L104.905 357.728V358.152H110.405ZM110.405 555V560.5H115.905V555H110.405ZM11.7809 555V190.185H0.780867V555H11.7809ZM6.28087 195.685H110.405V184.685H6.28087V195.685ZM104.905 190.185V267.708H115.905V190.185H104.905ZM110.405 273.208H111.925V262.208H110.405V273.208ZM117.18 269.331C124.969 244.109 136.523 223.782 151.662 209.807C166.702 195.924 185.511 188.085 208.449 188.085V177.085C182.745 177.085 161.272 185.966 144.201 201.724C127.229 217.391 114.842 239.625 106.67 266.085L117.18 269.331ZM208.449 188.085C223.33 188.085 231.344 189.592 238.497 193.493L243.764 183.837C234.196 178.618 223.97 177.085 208.449 177.085V188.085ZM235.63 188.665V299.63H246.63V188.665H235.63ZM244.025 294.953C226.956 284.387 206.869 280.449 187.928 280.449V291.449C205.469 291.449 223.383 295.112 238.235 304.306L244.025 294.953ZM187.928 280.449C168.796 280.449 150.15 285.238 135.132 297.563C120.074 309.922 109.305 329.329 104.97 357.31L115.84 358.994C119.866 333.013 129.618 316.319 142.11 306.066C154.643 295.781 170.579 291.449 187.928 291.449V280.449ZM104.905 358.152V555H115.905V358.152H104.905ZM110.405 549.5H6.28087V560.5H110.405V549.5ZM380.626 363.472L375.17 362.774L375.126 363.122V363.472H380.626ZM380.626 555V560.5H386.126V555H380.626ZM276.502 555H271.002V560.5H276.502V555ZM276.502 5.49759V-0.0024108H271.002V5.49759H276.502ZM380.626 5.49759H386.126V-0.0024108H380.626V5.49759ZM380.626 256.308H375.126V261.808H380.626V256.308ZM382.906 256.308V261.808H386.305L387.825 258.768L382.906 256.308ZM618.515 555V560.5H624.015V555H618.515ZM514.391 555H508.891V560.5H514.391V555ZM519.891 337.631C519.891 312.909 514.01 294.752 502.485 282.797C490.923 270.802 474.609 266.008 455.869 266.008V277.008C472.85 277.008 485.797 281.335 494.566 290.431C503.372 299.567 508.891 314.471 508.891 337.631H519.891ZM455.869 266.008C433.655 266.008 415.276 273.156 401.508 289.427C387.973 305.423 379.408 329.645 375.17 362.774L386.081 364.17C390.204 331.937 398.36 310.177 409.905 296.532C421.219 283.161 436.281 277.008 455.869 277.008V266.008ZM375.126 363.472V555H386.126V363.472H375.126ZM380.626 549.5H276.502V560.5H380.626V549.5ZM282.002 555V5.49759H271.002V555H282.002ZM276.502 10.9976H380.626V-0.0024108H276.502V10.9976ZM375.126 5.49759V256.308H386.126V5.49759H375.126ZM380.626 261.808H382.906V250.808H380.626V261.808ZM387.825 258.768C398.662 237.094 410.907 219.546 427.658 207.364C444.311 195.252 465.919 188.085 496.151 188.085V177.085C464.06 177.085 440.066 184.738 421.188 198.468C402.407 212.126 389.191 231.44 377.987 253.848L387.825 258.768ZM496.151 188.085C530.505 188.085 559.572 197.68 580.029 217.332C600.441 236.942 613.015 267.274 613.015 310.27H624.015C624.015 265.102 610.749 231.592 587.649 209.4C564.594 187.251 532.479 177.085 496.151 177.085V188.085ZM613.015 310.27V555H624.015V310.27H613.015ZM618.515 549.5H514.391V560.5H618.515V549.5ZM519.891 555V337.631H508.891V555H519.891ZM665.584 555H660.084V560.5H665.584V555ZM665.584 190.185V184.685H660.084V190.185H665.584ZM769.708 190.185H775.208V184.685H769.708V190.185ZM769.708 555V560.5H775.208V555H769.708ZM671.084 555V190.185H660.084V555H671.084ZM665.584 195.685H769.708V184.685H665.584V195.685ZM764.208 190.185V555H775.208V190.185H764.208ZM769.708 549.5H665.584V560.5H769.708V549.5ZM718.026 133.763C687.622 133.763 661.964 108.104 661.964 77.7006H650.964C650.964 114.179 681.547 144.763 718.026 144.763V133.763ZM661.964 77.7006C661.964 46.5807 687.578 21.638 718.026 21.638V10.638C681.591 10.638 650.964 40.4175 650.964 77.7006H661.964ZM718.026 21.638C749.19 21.638 774.089 46.5367 774.089 77.7006H785.089C785.089 40.4616 755.265 10.638 718.026 10.638V21.638ZM774.089 77.7006C774.089 108.149 749.146 133.763 718.026 133.763V144.763C755.309 144.763 785.089 114.135 785.089 77.7006H774.089ZM814.396 555H808.896V560.5H814.396V555ZM814.396 477.477L810.013 474.154L808.896 475.628V477.477H814.396ZM974.002 266.948L978.385 270.271L985.074 261.448H974.002V266.948ZM820.476 266.948H814.976V272.448H820.476V266.948ZM820.476 190.185V184.685H814.976V190.185H820.476ZM1093.33 190.185H1098.83V184.685H1093.33V190.185ZM1093.33 266.948L1097.73 270.241L1098.83 268.776V266.948H1093.33ZM936.001 477.477L931.595 474.184L925.024 482.977H936.001V477.477ZM1109.29 477.477H1114.79V471.977H1109.29V477.477ZM1109.29 555V560.5H1114.79V555H1109.29ZM819.896 555V477.477H808.896V555H819.896ZM818.779 480.8L978.385 270.271L969.619 263.626L810.013 474.154L818.779 480.8ZM974.002 261.448H820.476V272.448H974.002V261.448ZM825.976 266.948V190.185H814.976V266.948H825.976ZM820.476 195.685H1093.33V184.685H820.476V195.685ZM1087.83 190.185V266.948H1098.83V190.185H1087.83ZM1088.92 263.656L931.595 474.184L940.406 480.769L1097.73 270.241L1088.92 263.656ZM936.001 482.977H1109.29V471.977H936.001V482.977ZM1103.79 477.477V555H1114.79V477.477H1103.79ZM1109.29 549.5H814.396V560.5H1109.29V549.5ZM1378.56 250.988L1373.38 252.824L1374.68 256.488H1378.56V250.988ZM1380.08 250.988V256.488H1385.58V250.988H1380.08ZM1380.08 190.185V184.685H1374.58V190.185H1380.08ZM1484.21 190.185H1489.71V184.685H1484.21V190.185ZM1484.21 555V560.5H1489.71V555H1484.21ZM1380.08 555H1374.58V560.5H1380.08V555ZM1380.08 502.558H1385.58V497.058H1380.08V502.558ZM1378.56 502.558V497.058H1375.2L1373.67 500.055L1378.56 502.558ZM1380.08 383.233L1385.58 383.475L1385.58 383.354V383.233H1380.08ZM1380.08 361.952H1385.58V361.816L1385.58 361.681L1380.08 361.952ZM1274.44 557.1C1233.89 557.1 1196.49 543.486 1169.2 514.288C1141.9 485.071 1124.13 439.624 1124.13 374.873H1113.13C1113.13 441.607 1131.47 490.023 1161.17 521.799C1190.88 553.593 1231.39 568.1 1274.44 568.1V557.1ZM1124.13 374.873C1124.13 309.749 1142.09 263.097 1169.1 232.797C1196.09 202.523 1232.55 188.085 1270.64 188.085V177.085C1229.68 177.085 1190.14 192.668 1160.89 225.477C1131.66 258.259 1113.13 307.751 1113.13 374.873H1124.13ZM1270.64 188.085C1326.17 188.085 1361.27 218.626 1373.38 252.824L1383.75 249.151C1370.02 210.386 1330.64 177.085 1270.64 177.085V188.085ZM1378.56 256.488H1380.08V245.488H1378.56V256.488ZM1385.58 250.988V190.185H1374.58V250.988H1385.58ZM1380.08 195.685H1484.21V184.685H1380.08V195.685ZM1478.71 190.185V555H1489.71V190.185H1478.71ZM1484.21 549.5H1380.08V560.5H1484.21V549.5ZM1385.58 555V502.558H1374.58V555H1385.58ZM1380.08 497.058H1378.56V508.058H1380.08V497.058ZM1373.67 500.055C1365.28 516.468 1353.72 530.655 1337.8 540.761C1321.9 550.858 1301.3 557.1 1274.44 557.1V568.1C1303.07 568.1 1325.78 561.422 1343.7 550.048C1361.6 538.684 1374.37 522.849 1383.46 505.061L1373.67 500.055ZM1218.02 376.393C1218.02 410.452 1227.43 435.508 1243.08 452.086C1258.74 468.678 1280.06 476.137 1302.56 476.137V465.137C1282.5 465.137 1264.3 458.535 1251.08 444.535C1237.85 430.522 1229.02 408.456 1229.02 376.393H1218.02ZM1302.56 476.137C1320.93 476.137 1341.04 471.343 1356.98 456.954C1372.99 442.502 1384.01 419.09 1385.58 383.475L1374.59 382.991C1373.11 416.539 1362.86 436.828 1349.61 448.788C1336.29 460.81 1319.15 465.137 1302.56 465.137V476.137ZM1385.58 383.233V361.952H1374.58V383.233H1385.58ZM1385.58 361.681C1384.01 329.875 1373.95 306.448 1358.74 290.935C1343.53 275.416 1323.63 268.289 1303.32 268.289V279.289C1321.02 279.289 1337.97 285.461 1350.89 298.634C1363.8 311.812 1373.12 332.467 1374.59 362.223L1385.58 361.681ZM1303.32 268.289C1278.87 268.289 1257.35 278.53 1242.05 297.401C1226.82 316.185 1218.02 343.16 1218.02 376.393H1229.02C1229.02 345.022 1237.32 320.696 1250.59 304.329C1263.79 288.047 1282.17 279.289 1303.32 279.289V268.289ZM1529.37 555H1523.87V560.5H1529.37V555ZM1529.37 5.49759V-0.0024108H1523.87V5.49759H1529.37ZM1633.49 5.49759H1638.99V-0.0024108H1633.49V5.49759ZM1633.49 555V560.5H1638.99V555H1633.49ZM1534.87 555V5.49759H1523.87V555H1534.87ZM1529.37 10.9976H1633.49V-0.0024108H1529.37V10.9976ZM1627.99 5.49759V555H1638.99V5.49759H1627.99ZM1633.49 549.5H1529.37V560.5H1633.49V549.5Z" fill="url(#paint0_linear_183_9)" mask="url(#path-1-outside-1_183_9)"/>
<defs>
<linearGradient id="paint0_linear_183_9" x1="1211.51" y1="1012.79" x2="-294.397" y2="844.321" gradientUnits="userSpaceOnUse">
<stop stop-color="#ECF6FE"/>
<stop offset="1" stop-color="#3992DD"/>
</linearGradient>
</defs>
</svg>
