<?xml version="1.0" encoding="UTF-8"?>
<svg id="ELEMENTS" xmlns="http://www.w3.org/2000/svg" viewBox="0 0 499.81 499.81">
  <defs>
    <style>
      .cls-1 {
        fill: #fff;
      }
    </style>
  </defs>
  <path class="cls-1" d="M413.53,100.31c-30.96-14.25-63.67-24.36-97.27-30.05-4.26,7.46-9.08,17.48-12.45,25.57-35.74-5.33-72.07-5.33-107.8,0-3.82-8.74-8.09-17.28-12.79-25.57-33.65,5.69-66.39,15.84-97.36,30.18C24.48,191.95,7.82,281.3,16.13,369.28c36.03,26.78,76.41,47.15,119.35,60.23,9.66-13.09,18.21-26.97,25.58-41.48-13.95-5.21-27.42-11.64-40.24-19.22,3.35-2.53,6.59-5.07,9.72-7.63,75.56,35.73,163.15,35.73,238.71,0,3.2,2.64,6.52,5.2,9.85,7.67-12.84,7.62-26.34,14.08-40.32,19.31,7.35,14.49,15.91,28.33,25.57,41.39,42.96-13.04,83.34-33.41,119.35-60.23,9.72-102-16.79-190.54-70.16-269.01ZM171.54,315.23c-23.27,0-42.37-21.31-42.37-47.49s18.67-47.66,42.37-47.66,42.63,21.31,42.41,47.53c-.21,26.22-18.71,47.61-42.41,47.61ZM328.19,315.23c-23.27,0-42.37-21.31-42.37-47.49s18.67-47.66,42.37-47.66,42.63,21.31,42.37,47.53c-.26,26.22-18.67,47.61-42.37,47.61Z"/>
</svg>