<?xml version="1.0" encoding="UTF-8"?>
<svg id="ELEMENTS" xmlns="http://www.w3.org/2000/svg" viewBox="0 0 499.81 499.81">
  <defs>
    <style>
      .cls-1 {
        fill: #fff;
      }
    </style>
  </defs>
  <path class="cls-1" d="M249.9,18.56C122.18,18.56,18.27,122.35,18.27,249.91s103.91,231.34,231.63,231.34,231.64-103.77,231.64-231.34S377.62,18.56,249.9,18.56h0ZM402.32,127.75c26.42,32.75,42.48,74.1,43.22,119.17-8.79-1.81-46.03-8.74-90.52-8.74-14.36,0-29.47.72-44.62,2.59-1.28-3.11-2.56-6.21-3.9-9.34-3.93-9.24-8.16-18.41-12.55-27.44,68.48-28.21,101.51-67.37,108.36-76.23h0ZM249.9,54.78c49.36,0,94.47,18.34,128.93,48.54-5.46,7.44-35.04,44.42-101.07,69.37-30.56-55.87-64.02-102.13-71.98-112.88,14.19-3.29,28.95-5.03,44.12-5.03h0ZM165.84,73.74c6.75,9.29,40.25,56.05,71.6,111.47-84.14,22.12-158.85,23.56-176.88,23.56h-1.92c12.95-59.7,53.29-109.31,107.2-135.03h0ZM54.2,250.21c0-1.61.03-3.22.08-4.82,1.17.01,2.9.01,5.14.01,24.28,0,108.58-2.01,195.45-27.79,5.27,10.31,10.29,20.78,14.96,31.24-2.19.63-4.36,1.26-6.51,1.96-97.81,31.59-151.57,115.22-159.85,128.89-30.65-34.53-49.28-79.87-49.28-129.49h0ZM249.9,445.63c-44.88,0-86.3-15.2-119.36-40.69,5.59-10.96,46.17-84.02,153.36-121.32.06-.03.14-.05.21-.07,26.88,69.97,38.26,128.7,41.38,146.9-23.26,9.78-48.81,15.18-75.6,15.18h0ZM360.74,411.18c-2.62-15.06-13.17-70.1-37.51-137.23,13.65-2.12,26.93-2.96,39.38-2.96,40.9,0,72.9,8.96,80.33,11.23-8.84,53.3-39.36,99.43-82.21,128.96h0Z"/>
</svg>