<?xml version="1.0" encoding="UTF-8"?>
<svg id="ELEMENTS" xmlns="http://www.w3.org/2000/svg" viewBox="0 0 499.81 499.81">
  <defs>
    <style>
      .cls-1 {
        fill: #fff;
      }
    </style>
  </defs>
  <path class="cls-1" d="M374.73,98.14c-15.38,0-27.85,12.47-27.85,27.85s12.47,27.85,27.85,27.85,27.85-12.47,27.85-27.85-12.47-27.85-27.85-27.85Z"/>
  <path class="cls-1" d="M250.9,133.86c-64.51,0-117,52.48-117,117s52.49,117,117,117,117-52.49,117-117-52.49-117-117-117ZM250.9,325.8c-41.33,0-74.95-33.62-74.95-74.94s33.62-74.94,74.95-74.94,74.94,33.62,74.94,74.94-33.62,74.94-74.94,74.94Z"/>
  <path class="cls-1" d="M343.78,488.4h-189.68c-78.69,0-142.7-64.02-142.7-142.7v-189.68C11.41,77.32,75.42,13.31,154.11,13.31h189.68c78.69,0,142.71,64.01,142.71,142.7v189.68c0,78.69-64.02,142.7-142.71,142.7ZM154.11,58.01c-54.04,0-98.01,43.96-98.01,98v189.68c0,54.04,43.96,98.01,98.01,98.01h189.68c54.04,0,98.01-43.96,98.01-98.01v-189.68c0-54.04-43.97-98-98.01-98h-189.68Z"/>
</svg>