<?xml version="1.0" encoding="UTF-8"?>
<svg id="Layer_1" data-name="Layer 1" xmlns="http://www.w3.org/2000/svg" xmlns:xlink="http://www.w3.org/1999/xlink" viewBox="0 0 1620 1620">
  <defs>
    <style>
      .cls-1 {
        fill: url(#linear-gradient);
      }

      .cls-1, .cls-2, .cls-3, .cls-4 {
        stroke-width: 0px;
      }

      .cls-2 {
        fill: url(#linear-gradient-2);
      }

      .cls-3 {
        fill: url(#linear-gradient-3);
      }

      .cls-4 {
        fill: url(#linear-gradient-4);
      }
    </style>
    <linearGradient id="linear-gradient" x1="729.14" y1="808.57" x2="938.89" y2="808.57" gradientUnits="userSpaceOnUse">
      <stop offset="0" stop-color="#3fa2f6"/>
      <stop offset=".99" stop-color="#455c9c"/>
    </linearGradient>
    <linearGradient id="linear-gradient-2" x1="408.47" y1="856.26" x2="705.76" y2="1027.9" gradientUnits="userSpaceOnUse">
      <stop offset="0" stop-color="#3fa2f6"/>
      <stop offset="1" stop-color="#03346e"/>
    </linearGradient>
    <linearGradient id="linear-gradient-3" x1="745.19" y1="674.63" x2="927.79" y2="358.35" gradientUnits="userSpaceOnUse">
      <stop offset="0" stop-color="#3fa2f6"/>
      <stop offset="1" stop-color="#03346e"/>
    </linearGradient>
    <linearGradient id="linear-gradient-4" x1="665.02" y1="962.96" x2="1436.58" y2="962.96" xlink:href="#linear-gradient-2"/>
  </defs>
  <path class="cls-1" d="m920.18,776.15c24.95,14.41,24.95,50.43,0,64.83l-67.44,38.94-67.44,38.94c-24.95,14.41-56.15-3.6-56.15-32.42v-155.76c0-28.81,31.19-46.82,56.15-32.42l67.44,38.94,67.44,38.94Z"/>
  <path class="cls-2" d="m725.15,593.63c-32.44,9.88-59.67,31.68-76.6,60.3-11.86,20.04-18.67,43.44-18.67,68.42v400.88c0,53.99-31.79,100.56-77.68,122-.32.16-.63.3-.96.43-1.17.53-2.33,1.05-3.51,1.55-25.56,11.06-52.65,19.24-80.88,24.1-19.97,3.44-40.49,5.24-61.44,5.24-15.39,0-30.57-.96-45.46-2.85,25.37-5.3,48.12-17.74,66.05-35.15,25.2-24.45,40.85-58.67,40.85-96.56v-326.7c0-89.3,52.21-166.42,127.76-202.47,11.27-5.38,23.07-9.85,35.28-13.3,19.47-5.51,40-8.47,61.22-8.47,11.58,0,22.95.88,34.05,2.56Z"/>
  <path class="cls-3" d="m1088.43,722.06c-.96,12.45-2.99,24.89-6.1,37.19-4.97,19.62-12.67,38.88-23.28,57.26-5.79,10.02-12.24,19.44-19.25,28.21,7.67-33.03,2.4-67.51-13.92-96.48-11.42-20.3-28.28-37.9-49.92-50.39l-347.16-200.44c-46.77-27-71.2-77.81-66.82-128.26.03-.36.06-.71.12-1.05.12-1.28.26-2.55.4-3.83,3.21-27.66,9.68-55.22,19.57-82.09,7.01-19.02,15.71-37.68,26.18-55.84,7.7-13.32,16.13-25.99,25.2-37.94-8.09,24.62-8.7,50.55-2.58,74.77,8.57,34.05,30.38,64.72,63.19,83.65l130.15,75.15,152.78,88.2c77.33,44.65,118.01,128.42,111.46,211.89Z"/>
  <path class="cls-4" d="m1436.58,967.9c-17.28-19.32-39.42-32.8-63.45-39.62-33.78-9.59-71.24-6.03-104.04,12.9l-130.16,75.15-152.77,88.2c-77.35,44.65-170.23,38-239.23-9.4-10.29-7.07-20.06-15.05-29.16-23.9-14.51-14.1-27.33-30.39-37.94-48.78-5.79-10.02-10.73-20.32-14.82-30.77,24.78,23.15,57.26,35.84,90.52,36.18,23.3.26,46.95-5.54,68.59-18.04l347.17-200.44c46.75-27,102.98-22.74,144.49,6.28.3.2.58.4.86.62,1.04.75,2.07,1.5,3.1,2.26,22.36,16.62,42.99,35.98,61.31,58,12.97,15.58,24.79,32.44,35.26,50.58,7.7,13.33,14.46,26.95,20.26,40.79Z"/>
</svg>