<?xml version="1.0" encoding="UTF-8"?>
<svg id="ELEMENTS" xmlns="http://www.w3.org/2000/svg" viewBox="0 0 499.81 499.81">
  <defs>
    <style>
      .cls-1 {
        fill: #fff;
      }
    </style>
  </defs>
  <path class="cls-1" d="M48.91,225.47s202.64-83.16,272.91-112.45c26.94-11.71,118.3-49.2,118.3-49.2,0,0,42.17-16.4,38.65,23.43-1.17,16.4-10.54,73.79-19.91,135.87-14.06,87.85-29.28,183.9-29.28,183.9,0,0-2.34,26.94-22.25,31.63-19.91,4.69-52.71-16.4-58.57-21.08-4.69-3.51-87.85-56.22-118.3-81.99-8.2-7.03-17.57-21.08,1.17-37.48,42.17-38.65,92.53-86.68,122.99-117.13,14.06-14.06,28.11-46.85-30.45-7.03-83.16,57.4-165.16,111.28-165.16,111.28,0,0-18.74,11.71-53.88,1.17-35.14-10.54-76.14-24.6-76.14-24.6,0,0-28.11-17.57,19.91-36.31h0Z"/>
</svg>