<?xml version="1.0" encoding="UTF-8"?>
<svg id="ELEMENTS" xmlns="http://www.w3.org/2000/svg" viewBox="0 0 499.81 499.81">
  <defs>
    <style>
      .cls-1 {
        fill: #fff;
      }
    </style>
  </defs>
  <path class="cls-1" d="M452.15,204.8h-.07c-3.86.37-7.74.57-11.62.59-42.57,0-82.27-21.45-105.58-57.06v194.31c0,79.31-64.3,143.61-143.61,143.61S47.65,421.95,47.65,342.64s64.29-143.61,143.61-143.61c3,0,5.93.27,8.88.45v70.77c-2.95-.35-5.85-.89-8.88-.89-40.48,0-73.3,32.82-73.3,73.3s32.82,73.3,73.3,73.3,76.25-31.9,76.25-72.39l.71-330h67.71c6.38,60.71,55.34,108.14,116.23,112.59v78.65Z"/>
</svg>