<?xml version="1.0" encoding="UTF-8"?>
<svg id="ELEMENTS" xmlns="http://www.w3.org/2000/svg" viewBox="0 0 499.81 499.81">
  <defs>
    <style>
      .cls-1, .cls-2 {
        fill: #fff;
      }

      .cls-2 {
        fill-rule: evenodd;
      }
    </style>
  </defs>
  <path class="cls-1" d="M18.68,481.7l33.24-124.01c-18.82-33.95-28.72-72-28.72-110.61C23.19,120.83,125.91,18.11,252.16,18.11s228.97,102.72,228.97,228.97-102.72,228.97-228.97,228.97c-37.9,0-75.33-9.57-108.84-27.74l-124.65,33.39ZM149.52,401.83l7.85,4.68c28.82,17.17,61.6,26.25,94.79,26.25,102.39,0,185.69-83.3,185.69-185.69S354.55,61.39,252.16,61.39,66.47,144.68,66.47,247.08c0,33.81,9.39,67.1,27.16,96.27l4.81,7.91-18.55,69.24,69.63-18.66Z"/>
  <path class="cls-2" d="M337.34,278.92c-9.42-5.64-21.69-11.93-32.79-7.39-8.52,3.48-13.96,16.82-19.47,23.63-2.83,3.5-6.21,4.04-10.56,2.29-31.97-12.73-56.48-34.08-74.12-63.49-2.99-4.57-2.45-8.17,1.15-12.41,5.33-6.27,12.02-13.4,13.47-21.86,1.44-8.45-2.52-18.34-6.02-25.87-4.47-9.62-9.46-23.35-19.1-28.79-8.87-5.01-20.53-2.2-28.43,4.23-13.63,11.1-20.2,28.48-20,45.72.05,4.9.66,9.78,1.8,14.51,2.75,11.37,8,21.98,13.92,32.07,4.46,7.61,9.3,14.99,14.53,22.09,17.1,23.23,38.38,43.42,63.01,58.51,12.31,7.54,25.57,14.15,39.3,18.69,15.4,5.09,29.11,10.38,45.74,7.22,17.41-3.3,34.57-14.08,41.48-30.85,2.04-4.97,3.07-10.5,1.92-15.74-2.37-10.85-17.05-17.29-25.82-22.54Z"/>
</svg>